<?xml version="1.0" standalone="no"?>
<!DOCTYPE svg PUBLIC "-//W3C//DTD SVG 20010904//EN"
 "http://www.w3.org/TR/2001/REC-SVG-20010904/DTD/svg10.dtd">
<svg version="1.0" xmlns="http://www.w3.org/2000/svg"
 width="256.000000pt" height="256.000000pt" viewBox="0 0 256.000000 256.000000"
 preserveAspectRatio="xMidYMid meet">
<g transform="translate(0.000000,256.000000) scale(0.100000,-0.100000)"
fill="#000000" stroke="none">
<path d="M1090 1265 l0 -205 30 0 30 0 0 150 c0 83 3 150 8 150 4 0 22 -26 41
-58 19 -31 62 -99 95 -149 59 -90 62 -93 99 -93 l37 0 0 205 0 205 -35 0 -35
0 0 -145 c0 -90 -4 -145 -10 -145 -5 0 -10 4 -10 9 0 5 -16 32 -35 60 -19 28
-35 53 -35 56 0 6 -58 95 -85 130 -8 10 -15 23 -15 27 0 4 -18 8 -40 8 l-40 0
0 -205z"/>
<path d="M1940 1265 l0 -205 30 0 30 0 0 74 0 73 63 5 c100 8 127 37 127 138
0 46 -4 60 -22 76 -38 33 -75 44 -153 44 l-75 0 0 -205z m183 108 c17 -29 17
-34 3 -62 -20 -37 -20 -37 -78 -46 l-48 -7 0 76 0 77 52 -3 c47 -3 54 -6 71
-35z"/>
<path d="M1510 1210 l0 -150 30 0 30 0 0 150 0 150 -30 0 -30 0 0 -150z"/>
<path d="M1683 1348 c-17 -8 -23 -20 -23 -44 l0 -32 40 19 c46 22 59 23 83 5
33 -25 20 -41 -44 -55 -78 -16 -109 -44 -109 -99 0 -61 26 -87 86 -85 27 1 70
2 97 2 l47 1 0 112 c0 137 -5 155 -41 173 -32 17 -104 19 -136 3z"/>
<path d="M2210 1350 c0 -5 7 -26 16 -47 9 -21 20 -47 24 -58 4 -11 20 -51 35
-88 16 -38 28 -82 27 -99 -1 -37 -37 -78 -69 -78 -19 0 -23 -5 -23 -30 0 -25
4 -30 25 -30 58 0 104 52 145 165 23 62 83 213 91 227 17 33 11 48 -20 48 -22
0 -31 -6 -36 -22 -3 -13 -10 -32 -14 -43 -22 -54 -40 -102 -46 -122 -4 -13 -9
-23 -13 -23 -7 0 -39 87 -65 173 -10 33 -15 37 -44 37 -18 0 -33 -4 -33 -10z"/>
</g>
</svg>
